<svg xmlns="http://www.w3.org/2000/svg" width="32" height="32" viewBox="0 0 32 32">
  <!-- Define gradients -->
  <defs>
    <linearGradient id="bgGradient" x1="0%" y1="0%" x2="100%" y2="100%">
      <stop offset="0%" stop-color="#f0f9ff" />
      <stop offset="100%" stop-color="#e0f2fe" />
    </linearGradient>
    <linearGradient id="textGradient" x1="0%" y1="0%" x2="100%" y2="100%">
      <stop offset="0%" stop-color="#0ea5e9" />  <!-- primary-500 -->
      <stop offset="50%" stop-color="#ec4899" />  <!-- secondary-500 -->
      <stop offset="100%" stop-color="#0ea5e9" /> <!-- primary-500 -->
    </linearGradient>
    <filter id="shadow" x="-20%" y="-20%" width="140%" height="140%">
      <feDropShadow dx="0" dy="1" stdDeviation="1" flood-opacity="0.3" />
    </filter>
  </defs>
  
  <!-- Background -->
  <rect width="32" height="32" rx="8" fill="url(#bgGradient)" />
  
  <!-- ID Logo -->
  <g transform="translate(4, 7)" filter="url(#shadow)">
    <!-- I letter -->
    <rect x="1" y="1" width="4" height="18" rx="2" fill="url(#textGradient)" />
    
    <!-- D letter -->
    <path d="M11,1 C14.9,1 18,4.5 18,10 C18,15.5 14.9,19 11,19 L9,19 C7.9,19 7,18.1 7,17 L7,3 C7,1.9 7.9,1 9,1 L11,1 Z M11,5 C10.4,5 10,5.9 10,10 C10,14.1 10.4,15 11,15 C11.6,15 12,14.1 12,10 C12,5.9 11.6,5 11,5 Z" fill="url(#textGradient)" />
    
    <!-- Break free symbol -->
    <line x1="22" y1="1" x2="27" y2="19" stroke="url(#textGradient)" stroke-width="2" stroke-linecap="round" />
  </g>
</svg> 